<mxfile host="app.diagrams.net" modified="2024-04-08T05:39:53.347Z" agent="Mozilla/5.0 (Windows NT 10.0; Win64; x64) AppleWebKit/537.36 (KHTML, like Gecko) Chrome/123.0.0.0 Safari/537.36" etag="WUnIZ2o29cGk1VAm5Y3w" version="24.2.2" type="github">
  <diagram id="R2lEEEUBdFMjLlhIrx00" name="Page-1">
    <mxGraphModel dx="947" dy="1158" grid="0" gridSize="10" guides="1" tooltips="1" connect="1" arrows="1" fold="1" page="1" pageScale="1" pageWidth="850" pageHeight="1100" math="0" shadow="0" extFonts="Permanent Marker^https://fonts.googleapis.com/css?family=Permanent+Marker">
      <root>
        <mxCell id="0" />
        <mxCell id="1" parent="0" />
        <mxCell id="C-vyLk0tnHw3VtMMgP7b-23" value="Khách hàng" style="shape=table;startSize=26;container=1;collapsible=1;childLayout=tableLayout;fixedRows=1;rowLines=0;fontStyle=1;align=center;resizeLast=1;fontSize=16;" parent="1" vertex="1">
          <mxGeometry x="69" y="94" width="250" height="224.87486267089844" as="geometry" />
        </mxCell>
        <mxCell id="C-vyLk0tnHw3VtMMgP7b-24" value="" style="shape=partialRectangle;collapsible=0;dropTarget=0;pointerEvents=0;fillColor=none;points=[[0,0.5],[1,0.5]];portConstraint=eastwest;top=0;left=0;right=0;bottom=1;fontSize=16;" parent="C-vyLk0tnHw3VtMMgP7b-23" vertex="1">
          <mxGeometry y="26" width="250" height="30" as="geometry" />
        </mxCell>
        <mxCell id="C-vyLk0tnHw3VtMMgP7b-25" value="PK" style="shape=partialRectangle;overflow=hidden;connectable=0;fillColor=none;top=0;left=0;bottom=0;right=0;fontStyle=1;fontSize=16;" parent="C-vyLk0tnHw3VtMMgP7b-24" vertex="1">
          <mxGeometry width="30" height="30" as="geometry">
            <mxRectangle width="30" height="30" as="alternateBounds" />
          </mxGeometry>
        </mxCell>
        <mxCell id="C-vyLk0tnHw3VtMMgP7b-26" value="Mã khách hàng" style="shape=partialRectangle;overflow=hidden;connectable=0;fillColor=none;top=0;left=0;bottom=0;right=0;align=left;spacingLeft=6;fontStyle=5;fontSize=16;" parent="C-vyLk0tnHw3VtMMgP7b-24" vertex="1">
          <mxGeometry x="30" width="220" height="30" as="geometry">
            <mxRectangle width="220" height="30" as="alternateBounds" />
          </mxGeometry>
        </mxCell>
        <mxCell id="C-vyLk0tnHw3VtMMgP7b-27" value="" style="shape=partialRectangle;collapsible=0;dropTarget=0;pointerEvents=0;fillColor=none;points=[[0,0.5],[1,0.5]];portConstraint=eastwest;top=0;left=0;right=0;bottom=0;fontSize=16;" parent="C-vyLk0tnHw3VtMMgP7b-23" vertex="1">
          <mxGeometry y="56" width="250" height="74" as="geometry" />
        </mxCell>
        <mxCell id="C-vyLk0tnHw3VtMMgP7b-28" value="" style="shape=partialRectangle;overflow=hidden;connectable=0;fillColor=none;top=0;left=0;bottom=0;right=0;fontSize=16;" parent="C-vyLk0tnHw3VtMMgP7b-27" vertex="1">
          <mxGeometry width="30" height="74" as="geometry">
            <mxRectangle width="30" height="74" as="alternateBounds" />
          </mxGeometry>
        </mxCell>
        <mxCell id="C-vyLk0tnHw3VtMMgP7b-29" value="Tên khách hàng&#xa;Số CCCD&#xa;Số điện thoại" style="shape=partialRectangle;overflow=hidden;connectable=0;fillColor=none;top=0;left=0;bottom=0;right=0;align=left;spacingLeft=6;fontSize=16;" parent="C-vyLk0tnHw3VtMMgP7b-27" vertex="1">
          <mxGeometry x="30" width="220" height="74" as="geometry">
            <mxRectangle width="220" height="74" as="alternateBounds" />
          </mxGeometry>
        </mxCell>
        <mxCell id="dr3VKB_Wm1qcDhbBMzNp-36" value="" style="shape=partialRectangle;collapsible=0;dropTarget=0;pointerEvents=0;fillColor=none;points=[[0,0.5],[1,0.5]];portConstraint=eastwest;top=0;left=0;right=0;bottom=0;fontSize=16;" vertex="1" parent="C-vyLk0tnHw3VtMMgP7b-23">
          <mxGeometry y="130" width="250" height="79" as="geometry" />
        </mxCell>
        <mxCell id="dr3VKB_Wm1qcDhbBMzNp-37" value="" style="shape=partialRectangle;overflow=hidden;connectable=0;fillColor=none;top=0;left=0;bottom=0;right=0;fontSize=16;" vertex="1" parent="dr3VKB_Wm1qcDhbBMzNp-36">
          <mxGeometry width="30" height="79" as="geometry">
            <mxRectangle width="30" height="79" as="alternateBounds" />
          </mxGeometry>
        </mxCell>
        <mxCell id="dr3VKB_Wm1qcDhbBMzNp-38" value="" style="shape=partialRectangle;overflow=hidden;connectable=0;fillColor=none;top=0;left=0;bottom=0;right=0;align=left;spacingLeft=6;fontSize=16;" vertex="1" parent="dr3VKB_Wm1qcDhbBMzNp-36">
          <mxGeometry x="30" width="220" height="79" as="geometry">
            <mxRectangle width="220" height="79" as="alternateBounds" />
          </mxGeometry>
        </mxCell>
        <mxCell id="dr3VKB_Wm1qcDhbBMzNp-1" value="Loại phòng" style="shape=table;startSize=30;container=1;collapsible=1;childLayout=tableLayout;fixedRows=1;rowLines=0;fontStyle=1;align=center;resizeLast=1;fontSize=16;" vertex="1" parent="1">
          <mxGeometry x="562" y="482" width="250" height="151.18734741210938" as="geometry" />
        </mxCell>
        <mxCell id="dr3VKB_Wm1qcDhbBMzNp-2" value="" style="shape=partialRectangle;collapsible=0;dropTarget=0;pointerEvents=0;fillColor=none;points=[[0,0.5],[1,0.5]];portConstraint=eastwest;top=0;left=0;right=0;bottom=1;fontSize=16;" vertex="1" parent="dr3VKB_Wm1qcDhbBMzNp-1">
          <mxGeometry y="30" width="250" height="30" as="geometry" />
        </mxCell>
        <mxCell id="dr3VKB_Wm1qcDhbBMzNp-3" value="PK" style="shape=partialRectangle;overflow=hidden;connectable=0;fillColor=none;top=0;left=0;bottom=0;right=0;fontStyle=1;fontSize=16;" vertex="1" parent="dr3VKB_Wm1qcDhbBMzNp-2">
          <mxGeometry width="30" height="30" as="geometry">
            <mxRectangle width="30" height="30" as="alternateBounds" />
          </mxGeometry>
        </mxCell>
        <mxCell id="dr3VKB_Wm1qcDhbBMzNp-4" value="Mã loại phòng" style="shape=partialRectangle;overflow=hidden;connectable=0;fillColor=none;top=0;left=0;bottom=0;right=0;align=left;spacingLeft=6;fontStyle=5;fontSize=16;" vertex="1" parent="dr3VKB_Wm1qcDhbBMzNp-2">
          <mxGeometry x="30" width="220" height="30" as="geometry">
            <mxRectangle width="220" height="30" as="alternateBounds" />
          </mxGeometry>
        </mxCell>
        <mxCell id="dr3VKB_Wm1qcDhbBMzNp-5" value="" style="shape=partialRectangle;collapsible=0;dropTarget=0;pointerEvents=0;fillColor=none;points=[[0,0.5],[1,0.5]];portConstraint=eastwest;top=0;left=0;right=0;bottom=0;fontSize=16;" vertex="1" parent="dr3VKB_Wm1qcDhbBMzNp-1">
          <mxGeometry y="60" width="250" height="79" as="geometry" />
        </mxCell>
        <mxCell id="dr3VKB_Wm1qcDhbBMzNp-6" value="" style="shape=partialRectangle;overflow=hidden;connectable=0;fillColor=none;top=0;left=0;bottom=0;right=0;fontSize=16;" vertex="1" parent="dr3VKB_Wm1qcDhbBMzNp-5">
          <mxGeometry width="30" height="79" as="geometry">
            <mxRectangle width="30" height="79" as="alternateBounds" />
          </mxGeometry>
        </mxCell>
        <mxCell id="dr3VKB_Wm1qcDhbBMzNp-7" value="Tên loại phòng&#xa;Đơn nguyên" style="shape=partialRectangle;overflow=hidden;connectable=0;fillColor=none;top=0;left=0;bottom=0;right=0;align=left;spacingLeft=6;fontSize=16;" vertex="1" parent="dr3VKB_Wm1qcDhbBMzNp-5">
          <mxGeometry x="30" width="220" height="79" as="geometry">
            <mxRectangle width="220" height="79" as="alternateBounds" />
          </mxGeometry>
        </mxCell>
        <mxCell id="dr3VKB_Wm1qcDhbBMzNp-8" value="Phòng" style="shape=table;startSize=30;container=1;collapsible=1;childLayout=tableLayout;fixedRows=1;rowLines=0;fontStyle=1;align=center;resizeLast=1;fontSize=16;" vertex="1" parent="1">
          <mxGeometry x="562" y="88" width="250" height="151.18734741210938" as="geometry" />
        </mxCell>
        <mxCell id="dr3VKB_Wm1qcDhbBMzNp-9" value="" style="shape=partialRectangle;collapsible=0;dropTarget=0;pointerEvents=0;fillColor=none;points=[[0,0.5],[1,0.5]];portConstraint=eastwest;top=0;left=0;right=0;bottom=1;fontSize=16;" vertex="1" parent="dr3VKB_Wm1qcDhbBMzNp-8">
          <mxGeometry y="30" width="250" height="30" as="geometry" />
        </mxCell>
        <mxCell id="dr3VKB_Wm1qcDhbBMzNp-10" value="PK" style="shape=partialRectangle;overflow=hidden;connectable=0;fillColor=none;top=0;left=0;bottom=0;right=0;fontStyle=1;fontSize=16;" vertex="1" parent="dr3VKB_Wm1qcDhbBMzNp-9">
          <mxGeometry width="30" height="30" as="geometry">
            <mxRectangle width="30" height="30" as="alternateBounds" />
          </mxGeometry>
        </mxCell>
        <mxCell id="dr3VKB_Wm1qcDhbBMzNp-11" value="Mã phòng" style="shape=partialRectangle;overflow=hidden;connectable=0;fillColor=none;top=0;left=0;bottom=0;right=0;align=left;spacingLeft=6;fontStyle=5;fontSize=16;" vertex="1" parent="dr3VKB_Wm1qcDhbBMzNp-9">
          <mxGeometry x="30" width="220" height="30" as="geometry">
            <mxRectangle width="220" height="30" as="alternateBounds" />
          </mxGeometry>
        </mxCell>
        <mxCell id="dr3VKB_Wm1qcDhbBMzNp-12" value="" style="shape=partialRectangle;collapsible=0;dropTarget=0;pointerEvents=0;fillColor=none;points=[[0,0.5],[1,0.5]];portConstraint=eastwest;top=0;left=0;right=0;bottom=0;fontSize=16;" vertex="1" parent="dr3VKB_Wm1qcDhbBMzNp-8">
          <mxGeometry y="60" width="250" height="79" as="geometry" />
        </mxCell>
        <mxCell id="dr3VKB_Wm1qcDhbBMzNp-13" value="" style="shape=partialRectangle;overflow=hidden;connectable=0;fillColor=none;top=0;left=0;bottom=0;right=0;fontSize=16;" vertex="1" parent="dr3VKB_Wm1qcDhbBMzNp-12">
          <mxGeometry width="30" height="79" as="geometry">
            <mxRectangle width="30" height="79" as="alternateBounds" />
          </mxGeometry>
        </mxCell>
        <mxCell id="dr3VKB_Wm1qcDhbBMzNp-14" value="Tên phòng&#xa;Số người&#xa;Tên loại phòng" style="shape=partialRectangle;overflow=hidden;connectable=0;fillColor=none;top=0;left=0;bottom=0;right=0;align=left;spacingLeft=6;fontSize=16;" vertex="1" parent="dr3VKB_Wm1qcDhbBMzNp-12">
          <mxGeometry x="30" width="220" height="79" as="geometry">
            <mxRectangle width="220" height="79" as="alternateBounds" />
          </mxGeometry>
        </mxCell>
        <mxCell id="dr3VKB_Wm1qcDhbBMzNp-15" value="Dịch vụ" style="shape=table;startSize=30;container=1;collapsible=1;childLayout=tableLayout;fixedRows=1;rowLines=0;fontStyle=1;align=center;resizeLast=1;fontSize=16;" vertex="1" parent="1">
          <mxGeometry x="69" y="837" width="250" height="183.6248779296875" as="geometry" />
        </mxCell>
        <mxCell id="dr3VKB_Wm1qcDhbBMzNp-16" value="" style="shape=partialRectangle;collapsible=0;dropTarget=0;pointerEvents=0;fillColor=none;points=[[0,0.5],[1,0.5]];portConstraint=eastwest;top=0;left=0;right=0;bottom=1;fontSize=16;" vertex="1" parent="dr3VKB_Wm1qcDhbBMzNp-15">
          <mxGeometry y="30" width="250" height="30" as="geometry" />
        </mxCell>
        <mxCell id="dr3VKB_Wm1qcDhbBMzNp-17" value="PK" style="shape=partialRectangle;overflow=hidden;connectable=0;fillColor=none;top=0;left=0;bottom=0;right=0;fontStyle=1;fontSize=16;" vertex="1" parent="dr3VKB_Wm1qcDhbBMzNp-16">
          <mxGeometry width="30" height="30" as="geometry">
            <mxRectangle width="30" height="30" as="alternateBounds" />
          </mxGeometry>
        </mxCell>
        <mxCell id="dr3VKB_Wm1qcDhbBMzNp-18" value="Mã dịch vụ" style="shape=partialRectangle;overflow=hidden;connectable=0;fillColor=none;top=0;left=0;bottom=0;right=0;align=left;spacingLeft=6;fontStyle=5;fontSize=16;" vertex="1" parent="dr3VKB_Wm1qcDhbBMzNp-16">
          <mxGeometry x="30" width="220" height="30" as="geometry">
            <mxRectangle width="220" height="30" as="alternateBounds" />
          </mxGeometry>
        </mxCell>
        <mxCell id="dr3VKB_Wm1qcDhbBMzNp-19" value="" style="shape=partialRectangle;collapsible=0;dropTarget=0;pointerEvents=0;fillColor=none;points=[[0,0.5],[1,0.5]];portConstraint=eastwest;top=0;left=0;right=0;bottom=0;fontSize=16;" vertex="1" parent="dr3VKB_Wm1qcDhbBMzNp-15">
          <mxGeometry y="60" width="250" height="111" as="geometry" />
        </mxCell>
        <mxCell id="dr3VKB_Wm1qcDhbBMzNp-20" value="" style="shape=partialRectangle;overflow=hidden;connectable=0;fillColor=none;top=0;left=0;bottom=0;right=0;fontSize=16;" vertex="1" parent="dr3VKB_Wm1qcDhbBMzNp-19">
          <mxGeometry width="30" height="111" as="geometry">
            <mxRectangle width="30" height="111" as="alternateBounds" />
          </mxGeometry>
        </mxCell>
        <mxCell id="dr3VKB_Wm1qcDhbBMzNp-21" value="Mã dịch vụ&#xa;Ngày sử dụng&#xa;Tên dịch vụ&#xa;Đơn vị cung cấp&#xa;Giá dịch vụ" style="shape=partialRectangle;overflow=hidden;connectable=0;fillColor=none;top=0;left=0;bottom=0;right=0;align=left;spacingLeft=6;fontSize=16;" vertex="1" parent="dr3VKB_Wm1qcDhbBMzNp-19">
          <mxGeometry x="30" width="220" height="111" as="geometry">
            <mxRectangle width="220" height="111" as="alternateBounds" />
          </mxGeometry>
        </mxCell>
        <mxCell id="dr3VKB_Wm1qcDhbBMzNp-22" value="Hóa đơn dịch vụ" style="shape=table;startSize=30;container=1;collapsible=1;childLayout=tableLayout;fixedRows=1;rowLines=0;fontStyle=1;align=center;resizeLast=1;fontSize=16;" vertex="1" parent="1">
          <mxGeometry x="69" y="486" width="250" height="213.6248779296875" as="geometry" />
        </mxCell>
        <mxCell id="dr3VKB_Wm1qcDhbBMzNp-23" value="" style="shape=partialRectangle;collapsible=0;dropTarget=0;pointerEvents=0;fillColor=none;points=[[0,0.5],[1,0.5]];portConstraint=eastwest;top=0;left=0;right=0;bottom=1;fontSize=16;" vertex="1" parent="dr3VKB_Wm1qcDhbBMzNp-22">
          <mxGeometry y="30" width="250" height="30" as="geometry" />
        </mxCell>
        <mxCell id="dr3VKB_Wm1qcDhbBMzNp-24" value="PK" style="shape=partialRectangle;overflow=hidden;connectable=0;fillColor=none;top=0;left=0;bottom=0;right=0;fontStyle=1;fontSize=16;" vertex="1" parent="dr3VKB_Wm1qcDhbBMzNp-23">
          <mxGeometry width="30" height="30" as="geometry">
            <mxRectangle width="30" height="30" as="alternateBounds" />
          </mxGeometry>
        </mxCell>
        <mxCell id="dr3VKB_Wm1qcDhbBMzNp-25" value="Mã hóa đơn" style="shape=partialRectangle;overflow=hidden;connectable=0;fillColor=none;top=0;left=0;bottom=0;right=0;align=left;spacingLeft=6;fontStyle=5;fontSize=16;" vertex="1" parent="dr3VKB_Wm1qcDhbBMzNp-23">
          <mxGeometry x="30" width="220" height="30" as="geometry">
            <mxRectangle width="220" height="30" as="alternateBounds" />
          </mxGeometry>
        </mxCell>
        <mxCell id="dr3VKB_Wm1qcDhbBMzNp-82" value="" style="shape=partialRectangle;collapsible=0;dropTarget=0;pointerEvents=0;fillColor=none;points=[[0,0.5],[1,0.5]];portConstraint=eastwest;top=0;left=0;right=0;bottom=1;fontSize=16;" vertex="1" parent="dr3VKB_Wm1qcDhbBMzNp-22">
          <mxGeometry y="60" width="250" height="30" as="geometry" />
        </mxCell>
        <mxCell id="dr3VKB_Wm1qcDhbBMzNp-83" value="PK" style="shape=partialRectangle;overflow=hidden;connectable=0;fillColor=none;top=0;left=0;bottom=0;right=0;fontStyle=1;fontSize=16;" vertex="1" parent="dr3VKB_Wm1qcDhbBMzNp-82">
          <mxGeometry width="30" height="30" as="geometry">
            <mxRectangle width="30" height="30" as="alternateBounds" />
          </mxGeometry>
        </mxCell>
        <mxCell id="dr3VKB_Wm1qcDhbBMzNp-84" value="Mã hóa đơn" style="shape=partialRectangle;overflow=hidden;connectable=0;fillColor=none;top=0;left=0;bottom=0;right=0;align=left;spacingLeft=6;fontStyle=5;fontSize=16;" vertex="1" parent="dr3VKB_Wm1qcDhbBMzNp-82">
          <mxGeometry x="30" width="220" height="30" as="geometry">
            <mxRectangle width="220" height="30" as="alternateBounds" />
          </mxGeometry>
        </mxCell>
        <mxCell id="dr3VKB_Wm1qcDhbBMzNp-26" value="" style="shape=partialRectangle;collapsible=0;dropTarget=0;pointerEvents=0;fillColor=none;points=[[0,0.5],[1,0.5]];portConstraint=eastwest;top=0;left=0;right=0;bottom=0;fontSize=16;" vertex="1" parent="dr3VKB_Wm1qcDhbBMzNp-22">
          <mxGeometry y="90" width="250" height="111" as="geometry" />
        </mxCell>
        <mxCell id="dr3VKB_Wm1qcDhbBMzNp-27" value="" style="shape=partialRectangle;overflow=hidden;connectable=0;fillColor=none;top=0;left=0;bottom=0;right=0;fontSize=16;" vertex="1" parent="dr3VKB_Wm1qcDhbBMzNp-26">
          <mxGeometry width="30" height="111" as="geometry">
            <mxRectangle width="30" height="111" as="alternateBounds" />
          </mxGeometry>
        </mxCell>
        <mxCell id="dr3VKB_Wm1qcDhbBMzNp-28" value="Tên khách hàng&#xa;Đơn giá&#xa;Tổng tiền" style="shape=partialRectangle;overflow=hidden;connectable=0;fillColor=none;top=0;left=0;bottom=0;right=0;align=left;spacingLeft=6;fontSize=16;" vertex="1" parent="dr3VKB_Wm1qcDhbBMzNp-26">
          <mxGeometry x="30" width="220" height="111" as="geometry">
            <mxRectangle width="220" height="111" as="alternateBounds" />
          </mxGeometry>
        </mxCell>
        <mxCell id="dr3VKB_Wm1qcDhbBMzNp-29" value="Hóa đơn thanh toán" style="shape=table;startSize=30;container=1;collapsible=1;childLayout=tableLayout;fixedRows=1;rowLines=0;fontStyle=1;align=center;resizeLast=1;fontSize=16;" vertex="1" parent="1">
          <mxGeometry x="562" y="797" width="250" height="226.06243133544922" as="geometry" />
        </mxCell>
        <mxCell id="dr3VKB_Wm1qcDhbBMzNp-30" value="" style="shape=partialRectangle;collapsible=0;dropTarget=0;pointerEvents=0;fillColor=none;points=[[0,0.5],[1,0.5]];portConstraint=eastwest;top=0;left=0;right=0;bottom=1;fontSize=16;" vertex="1" parent="dr3VKB_Wm1qcDhbBMzNp-29">
          <mxGeometry y="30" width="250" height="30" as="geometry" />
        </mxCell>
        <mxCell id="dr3VKB_Wm1qcDhbBMzNp-31" value="PK" style="shape=partialRectangle;overflow=hidden;connectable=0;fillColor=none;top=0;left=0;bottom=0;right=0;fontStyle=1;fontSize=16;" vertex="1" parent="dr3VKB_Wm1qcDhbBMzNp-30">
          <mxGeometry width="30" height="30" as="geometry">
            <mxRectangle width="30" height="30" as="alternateBounds" />
          </mxGeometry>
        </mxCell>
        <mxCell id="dr3VKB_Wm1qcDhbBMzNp-32" value="Mã hóa đơn" style="shape=partialRectangle;overflow=hidden;connectable=0;fillColor=none;top=0;left=0;bottom=0;right=0;align=left;spacingLeft=6;fontStyle=5;fontSize=16;" vertex="1" parent="dr3VKB_Wm1qcDhbBMzNp-30">
          <mxGeometry x="30" width="220" height="30" as="geometry">
            <mxRectangle width="220" height="30" as="alternateBounds" />
          </mxGeometry>
        </mxCell>
        <mxCell id="dr3VKB_Wm1qcDhbBMzNp-33" value="" style="shape=partialRectangle;collapsible=0;dropTarget=0;pointerEvents=0;fillColor=none;points=[[0,0.5],[1,0.5]];portConstraint=eastwest;top=0;left=0;right=0;bottom=0;fontSize=16;" vertex="1" parent="dr3VKB_Wm1qcDhbBMzNp-29">
          <mxGeometry y="60" width="250" height="153" as="geometry" />
        </mxCell>
        <mxCell id="dr3VKB_Wm1qcDhbBMzNp-34" value="" style="shape=partialRectangle;overflow=hidden;connectable=0;fillColor=none;top=0;left=0;bottom=0;right=0;fontSize=16;" vertex="1" parent="dr3VKB_Wm1qcDhbBMzNp-33">
          <mxGeometry width="30" height="153" as="geometry">
            <mxRectangle width="30" height="153" as="alternateBounds" />
          </mxGeometry>
        </mxCell>
        <mxCell id="dr3VKB_Wm1qcDhbBMzNp-35" value="Ngày nhận phòng&#xa;Ngày trả phòng&#xa;Tên khách hàng&#xa;Loại phòng&#xa;Tông tiền&#xa;Hình thức thanh toán&#xa;Ghi chú" style="shape=partialRectangle;overflow=hidden;connectable=0;fillColor=none;top=0;left=0;bottom=0;right=0;align=left;spacingLeft=6;fontSize=16;" vertex="1" parent="dr3VKB_Wm1qcDhbBMzNp-33">
          <mxGeometry x="30" width="220" height="153" as="geometry">
            <mxRectangle width="220" height="153" as="alternateBounds" />
          </mxGeometry>
        </mxCell>
        <mxCell id="dr3VKB_Wm1qcDhbBMzNp-43" value="ở" style="shape=rhombus;perimeter=rhombusPerimeter;whiteSpace=wrap;html=1;align=center;" vertex="1" parent="1">
          <mxGeometry x="399" y="149.5" width="83" height="76" as="geometry" />
        </mxCell>
        <mxCell id="dr3VKB_Wm1qcDhbBMzNp-45" value="" style="edgeStyle=entityRelationEdgeStyle;fontSize=12;html=1;endArrow=ERoneToMany;rounded=0;entryX=1;entryY=0.5;entryDx=0;entryDy=0;exitX=0;exitY=0.5;exitDx=0;exitDy=0;" edge="1" parent="1" source="dr3VKB_Wm1qcDhbBMzNp-43" target="C-vyLk0tnHw3VtMMgP7b-27">
          <mxGeometry width="100" height="100" relative="1" as="geometry">
            <mxPoint x="481" y="441.69" as="sourcePoint" />
            <mxPoint x="318" y="207" as="targetPoint" />
            <Array as="points">
              <mxPoint x="496" y="374" />
              <mxPoint x="500" y="255.69" />
              <mxPoint x="464" y="310" />
              <mxPoint x="423" y="318.5" />
              <mxPoint x="370" y="228.5" />
            </Array>
          </mxGeometry>
        </mxCell>
        <mxCell id="dr3VKB_Wm1qcDhbBMzNp-46" value="" style="edgeStyle=entityRelationEdgeStyle;fontSize=12;html=1;endArrow=ERone;endFill=1;rounded=0;entryX=0;entryY=0.5;entryDx=0;entryDy=0;exitX=1;exitY=0.5;exitDx=0;exitDy=0;" edge="1" parent="1" source="dr3VKB_Wm1qcDhbBMzNp-43" target="dr3VKB_Wm1qcDhbBMzNp-12">
          <mxGeometry width="100" height="100" relative="1" as="geometry">
            <mxPoint x="490" y="190" as="sourcePoint" />
            <mxPoint x="376" y="460" as="targetPoint" />
            <Array as="points">
              <mxPoint x="561" y="216" />
              <mxPoint x="514" y="147" />
            </Array>
          </mxGeometry>
        </mxCell>
        <mxCell id="dr3VKB_Wm1qcDhbBMzNp-48" value="Có" style="shape=rhombus;perimeter=rhombusPerimeter;whiteSpace=wrap;html=1;align=center;" vertex="1" parent="1">
          <mxGeometry x="639" y="323" width="96" height="73" as="geometry" />
        </mxCell>
        <mxCell id="dr3VKB_Wm1qcDhbBMzNp-53" value="" style="edgeStyle=orthogonalEdgeStyle;fontSize=12;html=1;endArrow=ERoneToMany;rounded=0;entryX=0.5;entryY=1;entryDx=0;entryDy=0;exitX=0.5;exitY=0;exitDx=0;exitDy=0;" edge="1" parent="1" source="dr3VKB_Wm1qcDhbBMzNp-48" target="dr3VKB_Wm1qcDhbBMzNp-8">
          <mxGeometry width="100" height="100" relative="1" as="geometry">
            <mxPoint x="630" y="511" as="sourcePoint" />
            <mxPoint x="730" y="411" as="targetPoint" />
          </mxGeometry>
        </mxCell>
        <mxCell id="dr3VKB_Wm1qcDhbBMzNp-54" value="" style="edgeStyle=orthogonalEdgeStyle;fontSize=12;html=1;endArrow=ERone;endFill=1;rounded=0;exitX=0.5;exitY=1;exitDx=0;exitDy=0;entryX=0.5;entryY=0;entryDx=0;entryDy=0;" edge="1" parent="1" source="dr3VKB_Wm1qcDhbBMzNp-48" target="dr3VKB_Wm1qcDhbBMzNp-1">
          <mxGeometry width="100" height="100" relative="1" as="geometry">
            <mxPoint x="630" y="511" as="sourcePoint" />
            <mxPoint x="687" y="452" as="targetPoint" />
          </mxGeometry>
        </mxCell>
        <mxCell id="dr3VKB_Wm1qcDhbBMzNp-55" value="" style="edgeStyle=orthogonalEdgeStyle;fontSize=12;html=1;endArrow=ERoneToMany;rounded=0;exitX=0.5;exitY=0;exitDx=0;exitDy=0;entryX=0.5;entryY=0;entryDx=0;entryDy=0;" edge="1" source="dr3VKB_Wm1qcDhbBMzNp-56" parent="1" target="dr3VKB_Wm1qcDhbBMzNp-22">
          <mxGeometry width="100" height="100" relative="1" as="geometry">
            <mxPoint x="335" y="612" as="sourcePoint" />
            <mxPoint x="392" y="475" as="targetPoint" />
          </mxGeometry>
        </mxCell>
        <mxCell id="dr3VKB_Wm1qcDhbBMzNp-56" value="có" style="shape=rhombus;perimeter=rhombusPerimeter;whiteSpace=wrap;html=1;align=center;direction=west;" vertex="1" parent="1">
          <mxGeometry x="146" y="372" width="96" height="73" as="geometry" />
        </mxCell>
        <mxCell id="dr3VKB_Wm1qcDhbBMzNp-57" value="" style="edgeStyle=orthogonalEdgeStyle;fontSize=12;html=1;endArrow=ERone;endFill=1;rounded=0;exitX=0.5;exitY=1;exitDx=0;exitDy=0;entryX=0.5;entryY=1;entryDx=0;entryDy=0;" edge="1" source="dr3VKB_Wm1qcDhbBMzNp-56" parent="1" target="C-vyLk0tnHw3VtMMgP7b-23">
          <mxGeometry width="100" height="100" relative="1" as="geometry">
            <mxPoint x="335" y="612" as="sourcePoint" />
            <mxPoint x="392" y="583" as="targetPoint" />
          </mxGeometry>
        </mxCell>
        <mxCell id="dr3VKB_Wm1qcDhbBMzNp-58" value="" style="edgeStyle=orthogonalEdgeStyle;fontSize=12;html=1;endArrow=ERmany;startArrow=ERmany;rounded=0;exitX=0.5;exitY=0;exitDx=0;exitDy=0;entryX=0.5;entryY=1;entryDx=0;entryDy=0;" edge="1" parent="1" source="dr3VKB_Wm1qcDhbBMzNp-15" target="dr3VKB_Wm1qcDhbBMzNp-22">
          <mxGeometry width="100" height="100" relative="1" as="geometry">
            <mxPoint x="388" y="718" as="sourcePoint" />
            <mxPoint x="488" y="618" as="targetPoint" />
          </mxGeometry>
        </mxCell>
        <mxCell id="dr3VKB_Wm1qcDhbBMzNp-60" value="Có" style="shape=rhombus;perimeter=rhombusPerimeter;whiteSpace=wrap;html=1;align=center;" vertex="1" parent="1">
          <mxGeometry x="134" y="737" width="120" height="60" as="geometry" />
        </mxCell>
        <mxCell id="dr3VKB_Wm1qcDhbBMzNp-61" value="có" style="shape=rhombus;perimeter=rhombusPerimeter;whiteSpace=wrap;html=1;align=center;" vertex="1" parent="1">
          <mxGeometry x="401" y="514" width="120" height="60" as="geometry" />
        </mxCell>
        <mxCell id="dr3VKB_Wm1qcDhbBMzNp-64" value="" style="edgeStyle=orthogonalEdgeStyle;fontSize=12;html=1;endArrow=ERone;endFill=1;rounded=0;entryX=1;entryY=0.5;entryDx=0;entryDy=0;exitX=0.5;exitY=0;exitDx=0;exitDy=0;" edge="1" parent="1" source="dr3VKB_Wm1qcDhbBMzNp-61" target="dr3VKB_Wm1qcDhbBMzNp-36">
          <mxGeometry width="100" height="100" relative="1" as="geometry">
            <mxPoint x="630" y="761" as="sourcePoint" />
            <mxPoint x="396" y="325" as="targetPoint" />
            <Array as="points">
              <mxPoint x="461" y="512" />
              <mxPoint x="461" y="265" />
            </Array>
          </mxGeometry>
        </mxCell>
        <mxCell id="dr3VKB_Wm1qcDhbBMzNp-65" value="" style="edgeStyle=orthogonalEdgeStyle;fontSize=12;html=1;endArrow=ERmany;rounded=0;exitX=0.5;exitY=1;exitDx=0;exitDy=0;entryX=0.5;entryY=0;entryDx=0;entryDy=0;" edge="1" parent="1" source="dr3VKB_Wm1qcDhbBMzNp-61" target="dr3VKB_Wm1qcDhbBMzNp-29">
          <mxGeometry width="100" height="100" relative="1" as="geometry">
            <mxPoint x="630" y="511" as="sourcePoint" />
            <mxPoint x="730" y="411" as="targetPoint" />
          </mxGeometry>
        </mxCell>
        <mxCell id="dr3VKB_Wm1qcDhbBMzNp-85" value="" style="edgeStyle=entityRelationEdgeStyle;fontSize=12;html=1;endArrow=ERoneToMany;rounded=0;entryX=1;entryY=0.5;entryDx=0;entryDy=0;exitX=0;exitY=0.5;exitDx=0;exitDy=0;" edge="1" source="dr3VKB_Wm1qcDhbBMzNp-86" parent="1">
          <mxGeometry width="100" height="100" relative="1" as="geometry">
            <mxPoint x="432" y="1418.19" as="sourcePoint" />
            <mxPoint x="270" y="1163.5" as="targetPoint" />
            <Array as="points">
              <mxPoint x="447" y="1350.5" />
              <mxPoint x="451" y="1232.19" />
              <mxPoint x="415" y="1286.5" />
              <mxPoint x="374" y="1295" />
              <mxPoint x="321" y="1205" />
            </Array>
          </mxGeometry>
        </mxCell>
        <mxCell id="dr3VKB_Wm1qcDhbBMzNp-86" value="ở" style="shape=rhombus;perimeter=rhombusPerimeter;whiteSpace=wrap;html=1;align=center;" vertex="1" parent="1">
          <mxGeometry x="350" y="1126" width="83" height="76" as="geometry" />
        </mxCell>
        <mxCell id="dr3VKB_Wm1qcDhbBMzNp-87" value="" style="edgeStyle=entityRelationEdgeStyle;fontSize=12;html=1;endArrow=ERone;endFill=1;rounded=0;entryX=0;entryY=0.5;entryDx=0;entryDy=0;exitX=1;exitY=0.5;exitDx=0;exitDy=0;" edge="1" source="dr3VKB_Wm1qcDhbBMzNp-86" parent="1">
          <mxGeometry width="100" height="100" relative="1" as="geometry">
            <mxPoint x="441" y="1166.5" as="sourcePoint" />
            <mxPoint x="513" y="1164.5" as="targetPoint" />
            <Array as="points">
              <mxPoint x="512" y="1192.5" />
              <mxPoint x="465" y="1123.5" />
            </Array>
          </mxGeometry>
        </mxCell>
        <mxCell id="dr3VKB_Wm1qcDhbBMzNp-88" value="" style="edgeStyle=orthogonalEdgeStyle;fontSize=12;html=1;endArrow=ERone;endFill=1;rounded=0;exitX=0;exitY=0.5;exitDx=0;exitDy=0;" edge="1" source="dr3VKB_Wm1qcDhbBMzNp-89" parent="1">
          <mxGeometry width="100" height="100" relative="1" as="geometry">
            <mxPoint x="523" y="1779" as="sourcePoint" />
            <mxPoint x="247" y="1282" as="targetPoint" />
            <Array as="points">
              <mxPoint x="454" y="1282" />
              <mxPoint x="454" y="1282" />
            </Array>
          </mxGeometry>
        </mxCell>
        <mxCell id="dr3VKB_Wm1qcDhbBMzNp-89" value="có" style="shape=rhombus;perimeter=rhombusPerimeter;whiteSpace=wrap;html=1;align=center;" vertex="1" parent="1">
          <mxGeometry x="337" y="1251" width="120" height="60" as="geometry" />
        </mxCell>
        <mxCell id="dr3VKB_Wm1qcDhbBMzNp-90" value="" style="edgeStyle=orthogonalEdgeStyle;fontSize=12;html=1;endArrow=ERmany;rounded=0;exitX=1;exitY=0.5;exitDx=0;exitDy=0;" edge="1" source="dr3VKB_Wm1qcDhbBMzNp-89" parent="1">
          <mxGeometry width="100" height="100" relative="1" as="geometry">
            <mxPoint x="523" y="1529" as="sourcePoint" />
            <mxPoint x="526" y="1281" as="targetPoint" />
          </mxGeometry>
        </mxCell>
        <mxCell id="dr3VKB_Wm1qcDhbBMzNp-91" value="" style="edgeStyle=orthogonalEdgeStyle;fontSize=12;html=1;endArrow=ERoneToMany;rounded=0;exitX=0;exitY=0.5;exitDx=0;exitDy=0;" edge="1" source="dr3VKB_Wm1qcDhbBMzNp-92" parent="1">
          <mxGeometry width="100" height="100" relative="1" as="geometry">
            <mxPoint x="334.5" y="1616" as="sourcePoint" />
            <mxPoint x="245" y="1465" as="targetPoint" />
          </mxGeometry>
        </mxCell>
        <mxCell id="dr3VKB_Wm1qcDhbBMzNp-92" value="Có" style="shape=rhombus;perimeter=rhombusPerimeter;whiteSpace=wrap;html=1;align=center;" vertex="1" parent="1">
          <mxGeometry x="343.5" y="1428" width="96" height="73" as="geometry" />
        </mxCell>
        <mxCell id="dr3VKB_Wm1qcDhbBMzNp-93" value="" style="edgeStyle=orthogonalEdgeStyle;fontSize=12;html=1;endArrow=ERone;endFill=1;rounded=0;exitX=1;exitY=0.5;exitDx=0;exitDy=0;" edge="1" source="dr3VKB_Wm1qcDhbBMzNp-92" parent="1">
          <mxGeometry width="100" height="100" relative="1" as="geometry">
            <mxPoint x="334.5" y="1616" as="sourcePoint" />
            <mxPoint x="530" y="1465" as="targetPoint" />
          </mxGeometry>
        </mxCell>
        <mxCell id="dr3VKB_Wm1qcDhbBMzNp-94" value="" style="edgeStyle=orthogonalEdgeStyle;fontSize=12;html=1;endArrow=ERone;endFill=1;rounded=0;exitX=0.5;exitY=1;exitDx=0;exitDy=0;entryX=0.5;entryY=1;entryDx=0;entryDy=0;" edge="1" source="dr3VKB_Wm1qcDhbBMzNp-95" parent="1">
          <mxGeometry width="100" height="100" relative="1" as="geometry">
            <mxPoint x="431" y="1819" as="sourcePoint" />
            <mxPoint x="290" y="1526" as="targetPoint" />
          </mxGeometry>
        </mxCell>
        <mxCell id="dr3VKB_Wm1qcDhbBMzNp-95" value="có" style="shape=rhombus;perimeter=rhombusPerimeter;whiteSpace=wrap;html=1;align=center;direction=west;" vertex="1" parent="1">
          <mxGeometry x="242" y="1579" width="96" height="73" as="geometry" />
        </mxCell>
        <mxCell id="dr3VKB_Wm1qcDhbBMzNp-96" value="" style="edgeStyle=orthogonalEdgeStyle;fontSize=12;html=1;endArrow=ERoneToMany;rounded=0;exitX=0.5;exitY=0;exitDx=0;exitDy=0;entryX=0.5;entryY=0;entryDx=0;entryDy=0;" edge="1" source="dr3VKB_Wm1qcDhbBMzNp-95" parent="1">
          <mxGeometry width="100" height="100" relative="1" as="geometry">
            <mxPoint x="431" y="1819" as="sourcePoint" />
            <mxPoint x="290" y="1693" as="targetPoint" />
          </mxGeometry>
        </mxCell>
      </root>
    </mxGraphModel>
  </diagram>
</mxfile>
